<mxfile host="app.diagrams.net" modified="2023-09-08T06:26:03.745Z" agent="Mozilla/5.0 (Windows NT 10.0; Win64; x64) AppleWebKit/537.36 (KHTML, like Gecko) Chrome/116.0.0.0 Safari/537.36" etag="uUZvYHEkld2MzRN1S2Ie" version="21.7.2" type="github">
  <diagram id="C5RBs43oDa-KdzZeNtuy" name="Page-1">
    <mxGraphModel dx="1173" dy="595" grid="1" gridSize="10" guides="1" tooltips="1" connect="1" arrows="1" fold="1" page="1" pageScale="1" pageWidth="827" pageHeight="1169" math="0" shadow="0">
      <root>
        <mxCell id="WIyWlLk6GJQsqaUBKTNV-0" />
        <mxCell id="WIyWlLk6GJQsqaUBKTNV-1" parent="WIyWlLk6GJQsqaUBKTNV-0" />
        <mxCell id="QewNPFO5ow3r5f_CmoWt-3" value="" style="edgeStyle=orthogonalEdgeStyle;rounded=0;orthogonalLoop=1;jettySize=auto;html=1;" edge="1" parent="WIyWlLk6GJQsqaUBKTNV-1" source="WIyWlLk6GJQsqaUBKTNV-3" target="QewNPFO5ow3r5f_CmoWt-0">
          <mxGeometry relative="1" as="geometry" />
        </mxCell>
        <mxCell id="WIyWlLk6GJQsqaUBKTNV-3" value="mulai" style="rounded=1;whiteSpace=wrap;html=1;fontSize=12;glass=0;strokeWidth=1;shadow=0;" parent="WIyWlLk6GJQsqaUBKTNV-1" vertex="1">
          <mxGeometry x="40" y="30" width="120" height="40" as="geometry" />
        </mxCell>
        <mxCell id="WIyWlLk6GJQsqaUBKTNV-11" value="selsai" style="rounded=1;whiteSpace=wrap;html=1;fontSize=12;glass=0;strokeWidth=1;shadow=0;" parent="WIyWlLk6GJQsqaUBKTNV-1" vertex="1">
          <mxGeometry x="40" y="710" width="120" height="40" as="geometry" />
        </mxCell>
        <mxCell id="QewNPFO5ow3r5f_CmoWt-4" value="" style="edgeStyle=orthogonalEdgeStyle;rounded=0;orthogonalLoop=1;jettySize=auto;html=1;" edge="1" parent="WIyWlLk6GJQsqaUBKTNV-1" source="QewNPFO5ow3r5f_CmoWt-0" target="QewNPFO5ow3r5f_CmoWt-1">
          <mxGeometry relative="1" as="geometry" />
        </mxCell>
        <mxCell id="QewNPFO5ow3r5f_CmoWt-0" value="jumlah buku = 10" style="rounded=0;whiteSpace=wrap;html=1;" vertex="1" parent="WIyWlLk6GJQsqaUBKTNV-1">
          <mxGeometry x="40" y="100" width="120" height="60" as="geometry" />
        </mxCell>
        <mxCell id="QewNPFO5ow3r5f_CmoWt-25" value="" style="edgeStyle=orthogonalEdgeStyle;rounded=0;orthogonalLoop=1;jettySize=auto;html=1;entryX=0.5;entryY=0;entryDx=0;entryDy=0;" edge="1" parent="WIyWlLk6GJQsqaUBKTNV-1" source="QewNPFO5ow3r5f_CmoWt-1" target="QewNPFO5ow3r5f_CmoWt-28">
          <mxGeometry relative="1" as="geometry">
            <mxPoint x="100" y="270" as="targetPoint" />
          </mxGeometry>
        </mxCell>
        <mxCell id="QewNPFO5ow3r5f_CmoWt-1" value="perintah ibu, &quot;Baca semua bukumu&quot;" style="whiteSpace=wrap;html=1;rounded=0;" vertex="1" parent="WIyWlLk6GJQsqaUBKTNV-1">
          <mxGeometry x="40" y="200" width="120" height="60" as="geometry" />
        </mxCell>
        <mxCell id="QewNPFO5ow3r5f_CmoWt-9" value="" style="edgeStyle=orthogonalEdgeStyle;rounded=0;orthogonalLoop=1;jettySize=auto;html=1;" edge="1" parent="WIyWlLk6GJQsqaUBKTNV-1" source="QewNPFO5ow3r5f_CmoWt-7" target="QewNPFO5ow3r5f_CmoWt-8">
          <mxGeometry relative="1" as="geometry" />
        </mxCell>
        <mxCell id="QewNPFO5ow3r5f_CmoWt-12" value="" style="edgeStyle=orthogonalEdgeStyle;rounded=0;orthogonalLoop=1;jettySize=auto;html=1;" edge="1" parent="WIyWlLk6GJQsqaUBKTNV-1" source="QewNPFO5ow3r5f_CmoWt-29" target="QewNPFO5ow3r5f_CmoWt-11">
          <mxGeometry relative="1" as="geometry" />
        </mxCell>
        <mxCell id="QewNPFO5ow3r5f_CmoWt-7" value="jumlah buku yang dibaca == jumlah buku?" style="rhombus;whiteSpace=wrap;html=1;" vertex="1" parent="WIyWlLk6GJQsqaUBKTNV-1">
          <mxGeometry x="45" y="450" width="110" height="120" as="geometry" />
        </mxCell>
        <mxCell id="QewNPFO5ow3r5f_CmoWt-38" value="" style="edgeStyle=orthogonalEdgeStyle;rounded=0;orthogonalLoop=1;jettySize=auto;html=1;" edge="1" parent="WIyWlLk6GJQsqaUBKTNV-1" source="QewNPFO5ow3r5f_CmoWt-8" target="WIyWlLk6GJQsqaUBKTNV-11">
          <mxGeometry relative="1" as="geometry" />
        </mxCell>
        <mxCell id="QewNPFO5ow3r5f_CmoWt-8" value="lapor ke ibu semua buku sudah dibaca dan dipahami" style="whiteSpace=wrap;html=1;" vertex="1" parent="WIyWlLk6GJQsqaUBKTNV-1">
          <mxGeometry x="40" y="610" width="120" height="60" as="geometry" />
        </mxCell>
        <mxCell id="QewNPFO5ow3r5f_CmoWt-14" value="" style="edgeStyle=orthogonalEdgeStyle;rounded=0;orthogonalLoop=1;jettySize=auto;html=1;entryX=0;entryY=0.5;entryDx=0;entryDy=0;" edge="1" parent="WIyWlLk6GJQsqaUBKTNV-1" source="QewNPFO5ow3r5f_CmoWt-11" target="QewNPFO5ow3r5f_CmoWt-19">
          <mxGeometry relative="1" as="geometry" />
        </mxCell>
        <mxCell id="QewNPFO5ow3r5f_CmoWt-11" value="baca 1 buku yang belum dibaca" style="whiteSpace=wrap;html=1;" vertex="1" parent="WIyWlLk6GJQsqaUBKTNV-1">
          <mxGeometry x="350" y="480" width="120" height="60" as="geometry" />
        </mxCell>
        <mxCell id="QewNPFO5ow3r5f_CmoWt-32" style="edgeStyle=orthogonalEdgeStyle;rounded=0;orthogonalLoop=1;jettySize=auto;html=1;exitX=0.5;exitY=0;exitDx=0;exitDy=0;entryX=0.94;entryY=0.479;entryDx=0;entryDy=0;entryPerimeter=0;" edge="1" parent="WIyWlLk6GJQsqaUBKTNV-1" source="QewNPFO5ow3r5f_CmoWt-13" target="QewNPFO5ow3r5f_CmoWt-31">
          <mxGeometry relative="1" as="geometry">
            <Array as="points">
              <mxPoint x="720" y="322" />
            </Array>
          </mxGeometry>
        </mxCell>
        <mxCell id="QewNPFO5ow3r5f_CmoWt-13" value="jumlah buku yang dibaca dan dipahami = jumlah buku yang dibaca dan dipahami + 1" style="whiteSpace=wrap;html=1;" vertex="1" parent="WIyWlLk6GJQsqaUBKTNV-1">
          <mxGeometry x="650" y="480" width="140" height="60" as="geometry" />
        </mxCell>
        <mxCell id="QewNPFO5ow3r5f_CmoWt-20" value="" style="edgeStyle=orthogonalEdgeStyle;rounded=0;orthogonalLoop=1;jettySize=auto;html=1;" edge="1" parent="WIyWlLk6GJQsqaUBKTNV-1" source="QewNPFO5ow3r5f_CmoWt-19" target="QewNPFO5ow3r5f_CmoWt-13">
          <mxGeometry relative="1" as="geometry" />
        </mxCell>
        <mxCell id="QewNPFO5ow3r5f_CmoWt-23" value="ya" style="edgeLabel;html=1;align=center;verticalAlign=middle;resizable=0;points=[];" vertex="1" connectable="0" parent="QewNPFO5ow3r5f_CmoWt-20">
          <mxGeometry x="-0.32" y="1" relative="1" as="geometry">
            <mxPoint as="offset" />
          </mxGeometry>
        </mxCell>
        <mxCell id="QewNPFO5ow3r5f_CmoWt-21" style="edgeStyle=orthogonalEdgeStyle;rounded=0;orthogonalLoop=1;jettySize=auto;html=1;entryX=0.5;entryY=1;entryDx=0;entryDy=0;" edge="1" parent="WIyWlLk6GJQsqaUBKTNV-1" source="QewNPFO5ow3r5f_CmoWt-19" target="QewNPFO5ow3r5f_CmoWt-11">
          <mxGeometry relative="1" as="geometry">
            <Array as="points">
              <mxPoint x="550" y="590" />
              <mxPoint x="410" y="590" />
            </Array>
          </mxGeometry>
        </mxCell>
        <mxCell id="QewNPFO5ow3r5f_CmoWt-22" value="tidak" style="edgeLabel;html=1;align=center;verticalAlign=middle;resizable=0;points=[];" vertex="1" connectable="0" parent="QewNPFO5ow3r5f_CmoWt-21">
          <mxGeometry x="-0.17" y="2" relative="1" as="geometry">
            <mxPoint as="offset" />
          </mxGeometry>
        </mxCell>
        <mxCell id="QewNPFO5ow3r5f_CmoWt-19" value="paham?" style="rhombus;whiteSpace=wrap;html=1;" vertex="1" parent="WIyWlLk6GJQsqaUBKTNV-1">
          <mxGeometry x="510" y="470" width="80" height="80" as="geometry" />
        </mxCell>
        <mxCell id="QewNPFO5ow3r5f_CmoWt-42" style="edgeStyle=orthogonalEdgeStyle;rounded=0;orthogonalLoop=1;jettySize=auto;html=1;entryX=0.5;entryY=0;entryDx=0;entryDy=0;" edge="1" parent="WIyWlLk6GJQsqaUBKTNV-1" source="QewNPFO5ow3r5f_CmoWt-28" target="QewNPFO5ow3r5f_CmoWt-7">
          <mxGeometry relative="1" as="geometry" />
        </mxCell>
        <mxCell id="QewNPFO5ow3r5f_CmoWt-28" value="jumlah buku yang dibaca dan dipahami = 0" style="rounded=0;whiteSpace=wrap;html=1;" vertex="1" parent="WIyWlLk6GJQsqaUBKTNV-1">
          <mxGeometry x="40" y="295" width="120" height="60" as="geometry" />
        </mxCell>
        <mxCell id="QewNPFO5ow3r5f_CmoWt-30" value="" style="edgeStyle=orthogonalEdgeStyle;rounded=0;orthogonalLoop=1;jettySize=auto;html=1;" edge="1" parent="WIyWlLk6GJQsqaUBKTNV-1" source="QewNPFO5ow3r5f_CmoWt-7" target="QewNPFO5ow3r5f_CmoWt-29">
          <mxGeometry relative="1" as="geometry">
            <mxPoint x="155" y="510" as="sourcePoint" />
            <mxPoint x="387" y="510" as="targetPoint" />
          </mxGeometry>
        </mxCell>
        <mxCell id="QewNPFO5ow3r5f_CmoWt-29" value="total jumlah baca = total jumlah baca + 1" style="rounded=0;whiteSpace=wrap;html=1;" vertex="1" parent="WIyWlLk6GJQsqaUBKTNV-1">
          <mxGeometry x="190" y="480" width="120" height="60" as="geometry" />
        </mxCell>
        <mxCell id="QewNPFO5ow3r5f_CmoWt-40" style="edgeStyle=orthogonalEdgeStyle;rounded=0;orthogonalLoop=1;jettySize=auto;html=1;entryX=1;entryY=0.5;entryDx=0;entryDy=0;" edge="1" parent="WIyWlLk6GJQsqaUBKTNV-1" source="QewNPFO5ow3r5f_CmoWt-31" target="QewNPFO5ow3r5f_CmoWt-35">
          <mxGeometry relative="1" as="geometry">
            <Array as="points">
              <mxPoint x="382" y="210" />
              <mxPoint x="800" y="210" />
              <mxPoint x="800" y="730" />
            </Array>
          </mxGeometry>
        </mxCell>
        <mxCell id="QewNPFO5ow3r5f_CmoWt-45" value="Tidak" style="edgeLabel;html=1;align=center;verticalAlign=middle;resizable=0;points=[];" vertex="1" connectable="0" parent="QewNPFO5ow3r5f_CmoWt-40">
          <mxGeometry x="-0.0365" y="3" relative="1" as="geometry">
            <mxPoint as="offset" />
          </mxGeometry>
        </mxCell>
        <mxCell id="QewNPFO5ow3r5f_CmoWt-44" style="edgeStyle=orthogonalEdgeStyle;rounded=0;orthogonalLoop=1;jettySize=auto;html=1;" edge="1" parent="WIyWlLk6GJQsqaUBKTNV-1" source="QewNPFO5ow3r5f_CmoWt-31" target="QewNPFO5ow3r5f_CmoWt-7">
          <mxGeometry relative="1" as="geometry">
            <Array as="points">
              <mxPoint x="100" y="400" />
            </Array>
          </mxGeometry>
        </mxCell>
        <mxCell id="QewNPFO5ow3r5f_CmoWt-31" value="total jumlah baca &amp;lt;= jumlah buku * 2 ?" style="rhombus;whiteSpace=wrap;html=1;" vertex="1" parent="WIyWlLk6GJQsqaUBKTNV-1">
          <mxGeometry x="310" y="250" width="143" height="150" as="geometry" />
        </mxCell>
        <mxCell id="QewNPFO5ow3r5f_CmoWt-41" style="edgeStyle=orthogonalEdgeStyle;rounded=0;orthogonalLoop=1;jettySize=auto;html=1;" edge="1" parent="WIyWlLk6GJQsqaUBKTNV-1" source="QewNPFO5ow3r5f_CmoWt-35" target="WIyWlLk6GJQsqaUBKTNV-11">
          <mxGeometry relative="1" as="geometry" />
        </mxCell>
        <mxCell id="QewNPFO5ow3r5f_CmoWt-35" value="lapor ke ibu bahwa tidak semua buku bisa dipahami" style="whiteSpace=wrap;html=1;" vertex="1" parent="WIyWlLk6GJQsqaUBKTNV-1">
          <mxGeometry x="321.5" y="700" width="120" height="60" as="geometry" />
        </mxCell>
      </root>
    </mxGraphModel>
  </diagram>
</mxfile>
